<svg width="25" height="25" viewBox="0 0 25 25" fill="none" xmlns="http://www.w3.org/2000/svg">
<g id="clarity:language-solid">
<path id="Vector" d="M7.63889 11.4583L6.94444 13.6111H8.33333L7.63889 11.4583Z" fill="#FFA200"/>
<path id="Vector_2" d="M21.0417 2.08334H9.93056V5.55557H12.7083V6.94445H3.68056C2.50001 6.94445 1.59723 7.84723 1.59723 9.02779V16.6667C1.59723 17.8472 2.50001 18.75 3.68056 18.75H4.37501V22.2917L8.75001 18.75H13.4028V13.8889H21.0417C22.2222 13.8889 23.125 12.9861 23.125 11.8056V4.16668C23.125 2.98612 22.2222 2.08334 21.0417 2.08334ZM9.09723 15.9028L8.75001 14.7917H6.59723L6.18056 15.9028H4.5139L6.80556 9.72223H8.47223L10.7639 15.9028H9.09723ZM19.6528 10.4167V11.8056C18.75 11.8056 17.7778 11.5278 16.9445 11.1111C16.1111 11.5278 15.1389 11.7361 14.1667 11.8056L14.0972 10.4167C14.5833 10.4167 15.0695 10.3472 15.5556 10.2083C14.9306 9.58334 14.5139 8.81945 14.3056 7.98612H15.7639C15.9722 8.61112 16.3889 9.09723 16.875 9.5139C17.6389 8.8889 18.125 7.98612 18.1945 6.94445H14.0278V5.55557H16.1111V4.16668H17.5V5.55557H19.7917L19.8611 6.25001C19.9306 7.70834 19.375 9.16668 18.3333 10.2083C18.8195 10.3472 19.2361 10.4167 19.6528 10.4167Z" fill="#FFA200"/>
</g>
</svg>
